<?xml version="1.0" encoding="UTF-8" standalone="no"?><!DOCTYPE svg PUBLIC "-//W3C//DTD SVG 1.1//EN" "http://www.w3.org/Graphics/SVG/1.1/DTD/svg11.dtd"><svg width="100%" height="100%" viewBox="0 0 2991 2315" version="1.1" xmlns="http://www.w3.org/2000/svg" xmlns:xlink="http://www.w3.org/1999/xlink" xml:space="preserve" xmlns:serif="http://www.serif.com/" style="fill-rule:evenodd;clip-rule:evenodd;stroke-linejoin:round;stroke-miterlimit:2;"><path d="M1317.22,2261.09c-25.059,-4.736 -46.2,-9.269 -46.988,-10.058c-0.791,-0.79 43.321,-240.092 98.034,-531.771c54.699,-291.683 100.02,-533.35 100.708,-537.05c0.971,-5.254 11.679,-16.646 48.95,-52.062c26.25,-24.934 49.341,-45.329 51.316,-45.329c3.1,-0 18.075,82.258 106.088,582.379c56.358,320.32 101.812,582.976 101.008,583.697c-2.196,1.985 -91.525,19.305 -99.554,19.305c-5.504,-0.011 -7.242,-1.06 -8.087,-4.883c-0.596,-2.683 -8.342,-47.348 -17.205,-99.241c-83.42,-487.953 -123.579,-719.349 -125.133,-721.02c-1.096,-1.183 -2.312,-0.742 -2.967,1.083c-2.412,6.621 -105.025,627.552 -103.987,629.232c0.608,0.981 47.833,1.781 104.958,1.781c57.125,0 104.384,0.846 105.017,1.872c1.6,2.594 -100.258,138.032 -103.821,138.032c-1.579,-0 -26.025,-30.108 -54.329,-66.89c-28.304,-36.794 -52.288,-66.079 -53.279,-65.075c-1.004,1.003 -8.234,40.38 -16.059,87.491c-7.825,47.124 -14.783,88.36 -15.458,91.642c-1.162,5.627 -1.883,5.953 -12.45,5.728c-6.167,-0.135 -56.762,-8.863 -56.762,-8.863Z" style="fill:#070605;fill-rule:nonzero;"/><path d="M2060.11,2265.91c-74.016,-9.167 -133.8,-67.251 -172.116,-167.236c-10.546,-27.525 -25.892,-98.091 -33.896,-155.927c-8.438,-60.901 -13.05,-161.935 -13.058,-285.985c-0,-192.212 9.087,-272.287 43.75,-385.408c19.316,-63.033 67.387,-126.708 113.237,-150.008c19.154,-9.73 51.013,-18.909 77.633,-22.371c46.404,-6.033 109.988,11.233 145.567,39.525c7.125,5.671 13.8,10.304 14.837,10.304c1.038,0 4.726,3.938 8.209,8.742l6.325,8.737l-15.888,46.029c-22.675,65.65 -25.754,73.813 -28.187,74.592c-1.196,0.383 -5.404,-5.546 -9.35,-13.183c-10.429,-20.184 -29.925,-39.238 -48.95,-47.867c-46.704,-21.163 -102.95,-12.392 -131.446,20.512c-21.796,25.146 -37.788,60.596 -46.513,103.075c-5.683,27.663 -11.908,90.38 -14.22,143.15c-1.25,28.642 -3.246,73.046 -4.442,98.7c-2.775,59.855 -2.754,130.58 0.054,196.296c6.688,156.288 12.733,212.838 28.417,265.678c9.404,31.652 20.375,52.366 37.608,70.972c18.163,19.62 29.675,25.349 58.104,28.901c36.13,4.521 67.613,-2.876 89.971,-21.132c10.329,-8.435 26.692,-31.427 34.079,-47.89c2.275,-5.085 5.209,-8.93 6.504,-8.536c1.288,0.406 11.855,28.89 23.467,63.316l21.108,62.583l-10.408,9.956c-27.129,25.969 -46.254,37.595 -81.967,49.819c-19.033,6.517 -21.029,6.765 -53.133,6.449c-18.354,-0.169 -45.296,-1.793 -45.296,-1.793Z" style="fill:#070605;fill-rule:nonzero;"/><path d="M846.467,2245.8c-0.563,-1.499 -1.275,-102.771 -1.567,-225.049l-0.529,-222.332l-42.838,-0.588c-38.691,-0.529 -42.841,-0.946 -42.841,-4.283c-0,-4.579 34.562,-104.746 37.391,-108.388c1.334,-1.7 10.25,-2.85 25.171,-3.245l23.117,-0.621l2.162,-563.942l158.613,-0.567c125.275,-0.437 159.037,0.025 160.696,2.18c2.908,3.775 37.583,105.962 37.537,110.616c-0.033,3.529 -7.746,3.813 -122.042,4.334l-122.008,0.562l0,444.65l116.042,1.083l116.046,1.084l-0,114.958l-227.759,2.167l0,334.033l113.88,1.083l113.879,1.094l-0,112.784l-171.963,0.552c-136.429,0.44 -172.175,0 -172.987,-2.165Z" style="fill:#070605;fill-rule:nonzero;"/><path d="M831.75,1067.14c-0.812,-0.813 -1.475,-511.926 -1.475,-511.926l0,-510.449l112.792,-0l-0.55,511.35l-0.542,511.35l-110.225,-0.326Z" style="fill:#070605;fill-rule:nonzero;"/><path d="M1052.97,1067.12c0,-0 -1.467,-231.163 -1.467,-511.917l0,-510.437l223.417,-0l-0.542,511.341l-0.541,511.35l-109.709,0.563c-60.325,0.316 -111.158,-0.9 -111.158,-0.9Z" style="fill:#070605;fill-rule:nonzero;"/><path d="M1384.85,1067.14c-0.812,-0.813 -1.479,-231.184 -1.479,-511.926l0,-510.449l112.796,-0l-0.55,511.35l-0.542,511.35l-110.225,-0.326Z" style="fill:#070605;fill-rule:nonzero;"/><path d="M1604.62,555.212l-0,-510.449l112.796,-0l-0.555,511.35l-0.537,511.35l-110.225,-0.326l-1.479,-511.925Z" style="fill:#070605;fill-rule:nonzero;"/><path d="M2046.39,1067.12c-0,-0 -1.467,-231.163 -1.467,-511.917l0,-510.437l223.417,-0l-0.542,511.341l-0.554,511.35l-109.692,0.563c-42.391,0.225 -111.162,-0.9 -111.162,-0.9Z" style="fill:#070605;fill-rule:nonzero;"/><path d="M2820.71,2249.22l-1.442,-1102.95l-0,-1101.5l112.796,-0l-0,2205.9l-54.95,-0c-30.229,-0 -56.405,-1.444 -56.405,-1.444Zm-442.441,0.034l-1.488,-1102.99l0,-1101.5l112.796,-0l-0.541,1102.4l-0.542,1102.41l-110.225,-0.327Zm-1879.87,-1102.99l0,-1101.5l112.792,-0l-0.538,1102.4l-0.541,1102.41l-110.225,-0.327l-1.488,-1102.99Zm-440.312,1104.44l-0,-2205.94l223.414,-0l-0.541,1102.4l-0.542,1102.41l-111.171,0.564l-111.16,0.564Z" style="fill:#070605;fill-rule:nonzero;"/></svg>